<mxfile host="app.diagrams.net" modified="2021-06-18T06:03:07.653Z" agent="5.0 (Windows NT 10.0; Win64; x64) AppleWebKit/537.36 (KHTML, like Gecko) Chrome/91.0.4472.106 Safari/537.36" etag="5n5bPLtZnFvZFTqfy7pw" version="14.8.0" type="github" pages="2">
  <diagram id="R2lEEEUBdFMjLlhIrx00" name="Exercise1">
    <mxGraphModel dx="1242" dy="577" grid="1" gridSize="10" guides="1" tooltips="1" connect="1" arrows="1" fold="1" page="1" pageScale="1" pageWidth="850" pageHeight="1100" math="0" shadow="0" extFonts="Permanent Marker^https://fonts.googleapis.com/css?family=Permanent+Marker">
      <root>
        <mxCell id="0" />
        <mxCell id="1" parent="0" />
        <mxCell id="IfPGYuD_iaJT0KGIhq0e-1" value="employees" style="whiteSpace=wrap;html=1;align=center;" vertex="1" parent="1">
          <mxGeometry x="290" y="110" width="100" height="40" as="geometry" />
        </mxCell>
        <mxCell id="IfPGYuD_iaJT0KGIhq0e-42" style="edgeStyle=orthogonalEdgeStyle;rounded=0;orthogonalLoop=1;jettySize=auto;html=1;entryX=0.5;entryY=1;entryDx=0;entryDy=0;" edge="1" parent="1" source="IfPGYuD_iaJT0KGIhq0e-2" target="IfPGYuD_iaJT0KGIhq0e-27">
          <mxGeometry relative="1" as="geometry" />
        </mxCell>
        <mxCell id="IfPGYuD_iaJT0KGIhq0e-2" value="departments" style="whiteSpace=wrap;html=1;align=center;" vertex="1" parent="1">
          <mxGeometry x="290" y="320" width="100" height="40" as="geometry" />
        </mxCell>
        <mxCell id="IfPGYuD_iaJT0KGIhq0e-3" value="ssn" style="ellipse;whiteSpace=wrap;html=1;align=center;fontStyle=4;" vertex="1" parent="1">
          <mxGeometry x="220" y="20" width="100" height="40" as="geometry" />
        </mxCell>
        <mxCell id="IfPGYuD_iaJT0KGIhq0e-4" value="salary" style="ellipse;whiteSpace=wrap;html=1;align=center;" vertex="1" parent="1">
          <mxGeometry x="350" y="20" width="100" height="40" as="geometry" />
        </mxCell>
        <mxCell id="IfPGYuD_iaJT0KGIhq0e-5" value="phone" style="ellipse;whiteSpace=wrap;html=1;align=center;" vertex="1" parent="1">
          <mxGeometry x="430" y="80" width="100" height="40" as="geometry" />
        </mxCell>
        <mxCell id="IfPGYuD_iaJT0KGIhq0e-17" value="" style="endArrow=none;html=1;rounded=0;" edge="1" parent="1" source="IfPGYuD_iaJT0KGIhq0e-3" target="IfPGYuD_iaJT0KGIhq0e-1">
          <mxGeometry relative="1" as="geometry">
            <mxPoint x="230" y="250" as="sourcePoint" />
            <mxPoint x="390" y="250" as="targetPoint" />
          </mxGeometry>
        </mxCell>
        <mxCell id="IfPGYuD_iaJT0KGIhq0e-18" value="" style="endArrow=none;html=1;rounded=0;" edge="1" parent="1" source="IfPGYuD_iaJT0KGIhq0e-4" target="IfPGYuD_iaJT0KGIhq0e-1">
          <mxGeometry relative="1" as="geometry">
            <mxPoint x="309.74265697986704" y="69.1108516405684" as="sourcePoint" />
            <mxPoint x="349.44444444444446" y="120" as="targetPoint" />
          </mxGeometry>
        </mxCell>
        <mxCell id="IfPGYuD_iaJT0KGIhq0e-19" value="" style="endArrow=none;html=1;rounded=0;exitX=0;exitY=1;exitDx=0;exitDy=0;" edge="1" parent="1" source="IfPGYuD_iaJT0KGIhq0e-5" target="IfPGYuD_iaJT0KGIhq0e-1">
          <mxGeometry relative="1" as="geometry">
            <mxPoint x="304.74265697986704" y="79.1108516405684" as="sourcePoint" />
            <mxPoint x="344.44444444444446" y="130" as="targetPoint" />
          </mxGeometry>
        </mxCell>
        <mxCell id="IfPGYuD_iaJT0KGIhq0e-38" value="" style="edgeStyle=orthogonalEdgeStyle;rounded=0;orthogonalLoop=1;jettySize=auto;html=1;" edge="1" parent="1" source="IfPGYuD_iaJT0KGIhq0e-20" target="IfPGYuD_iaJT0KGIhq0e-30">
          <mxGeometry relative="1" as="geometry" />
        </mxCell>
        <mxCell id="IfPGYuD_iaJT0KGIhq0e-20" value="childrenOfEmployee" style="whiteSpace=wrap;html=1;align=center;" vertex="1" parent="1">
          <mxGeometry x="-90" y="120" width="140" height="40" as="geometry" />
        </mxCell>
        <mxCell id="IfPGYuD_iaJT0KGIhq0e-21" value="work_in" style="shape=rhombus;perimeter=rhombusPerimeter;whiteSpace=wrap;html=1;align=center;" vertex="1" parent="1">
          <mxGeometry x="280" y="210" width="120" height="60" as="geometry" />
        </mxCell>
        <mxCell id="IfPGYuD_iaJT0KGIhq0e-27" value="manage" style="shape=rhombus;perimeter=rhombusPerimeter;whiteSpace=wrap;html=1;align=center;" vertex="1" parent="1">
          <mxGeometry x="430" y="210" width="120" height="60" as="geometry" />
        </mxCell>
        <mxCell id="IfPGYuD_iaJT0KGIhq0e-30" value="dependent" style="shape=rhombus;perimeter=rhombusPerimeter;whiteSpace=wrap;html=1;align=center;" vertex="1" parent="1">
          <mxGeometry x="120" y="110" width="120" height="60" as="geometry" />
        </mxCell>
        <mxCell id="IfPGYuD_iaJT0KGIhq0e-40" value="" style="endArrow=none;html=1;rounded=0;exitX=1;exitY=0.5;exitDx=0;exitDy=0;entryX=0;entryY=0.75;entryDx=0;entryDy=0;" edge="1" parent="1" source="IfPGYuD_iaJT0KGIhq0e-30" target="IfPGYuD_iaJT0KGIhq0e-1">
          <mxGeometry relative="1" as="geometry">
            <mxPoint x="320" y="300" as="sourcePoint" />
            <mxPoint x="480" y="300" as="targetPoint" />
          </mxGeometry>
        </mxCell>
        <mxCell id="IfPGYuD_iaJT0KGIhq0e-44" value="" style="endArrow=none;html=1;rounded=0;exitX=0.5;exitY=0;exitDx=0;exitDy=0;" edge="1" parent="1" source="IfPGYuD_iaJT0KGIhq0e-21" target="IfPGYuD_iaJT0KGIhq0e-1">
          <mxGeometry relative="1" as="geometry">
            <mxPoint x="250" y="150" as="sourcePoint" />
            <mxPoint x="300" y="150" as="targetPoint" />
          </mxGeometry>
        </mxCell>
        <mxCell id="IfPGYuD_iaJT0KGIhq0e-45" value="" style="endArrow=none;html=1;rounded=0;exitX=0.5;exitY=0;exitDx=0;exitDy=0;" edge="1" parent="1" source="IfPGYuD_iaJT0KGIhq0e-2" target="IfPGYuD_iaJT0KGIhq0e-21">
          <mxGeometry relative="1" as="geometry">
            <mxPoint x="260" y="160" as="sourcePoint" />
            <mxPoint x="310" y="160" as="targetPoint" />
          </mxGeometry>
        </mxCell>
        <mxCell id="IfPGYuD_iaJT0KGIhq0e-46" value="" style="endArrow=none;html=1;rounded=0;entryX=1;entryY=0.75;entryDx=0;entryDy=0;" edge="1" parent="1" source="IfPGYuD_iaJT0KGIhq0e-27" target="IfPGYuD_iaJT0KGIhq0e-1">
          <mxGeometry relative="1" as="geometry">
            <mxPoint x="270" y="170" as="sourcePoint" />
            <mxPoint x="320" y="170" as="targetPoint" />
            <Array as="points">
              <mxPoint x="490" y="140" />
            </Array>
          </mxGeometry>
        </mxCell>
        <mxCell id="IfPGYuD_iaJT0KGIhq0e-47" value="&lt;span style=&quot;border-bottom: 1px dotted&quot;&gt;name&lt;/span&gt;" style="ellipse;whiteSpace=wrap;html=1;align=center;" vertex="1" parent="1">
          <mxGeometry x="-130" y="200" width="100" height="40" as="geometry" />
        </mxCell>
        <mxCell id="IfPGYuD_iaJT0KGIhq0e-48" value="" style="endArrow=none;html=1;rounded=0;" edge="1" parent="1" source="IfPGYuD_iaJT0KGIhq0e-47" target="IfPGYuD_iaJT0KGIhq0e-20">
          <mxGeometry relative="1" as="geometry">
            <mxPoint x="-70" y="330" as="sourcePoint" />
            <mxPoint x="90" y="330" as="targetPoint" />
          </mxGeometry>
        </mxCell>
        <mxCell id="IfPGYuD_iaJT0KGIhq0e-50" value="age" style="ellipse;whiteSpace=wrap;html=1;align=center;" vertex="1" parent="1">
          <mxGeometry y="210" width="100" height="40" as="geometry" />
        </mxCell>
        <mxCell id="IfPGYuD_iaJT0KGIhq0e-51" value="" style="endArrow=none;html=1;rounded=0;" edge="1" parent="1" source="IfPGYuD_iaJT0KGIhq0e-50" target="IfPGYuD_iaJT0KGIhq0e-20">
          <mxGeometry relative="1" as="geometry">
            <mxPoint x="-55.63260572168724" y="210.84347429558284" as="sourcePoint" />
            <mxPoint x="-25" y="170" as="targetPoint" />
          </mxGeometry>
        </mxCell>
      </root>
    </mxGraphModel>
  </diagram>
  <diagram id="ykmp7JDJprO2-yTa8ucG" name="Exercise2">
    <mxGraphModel dx="1038" dy="579" grid="1" gridSize="10" guides="1" tooltips="1" connect="1" arrows="1" fold="1" page="1" pageScale="1" pageWidth="827" pageHeight="1169" math="0" shadow="0">
      <root>
        <mxCell id="IQqM77a2gq9a0r3q6opK-0" />
        <mxCell id="IQqM77a2gq9a0r3q6opK-1" parent="IQqM77a2gq9a0r3q6opK-0" />
        <mxCell id="IQqM77a2gq9a0r3q6opK-2" value="STUDENT" style="shape=table;startSize=30;container=1;collapsible=1;childLayout=tableLayout;fixedRows=1;rowLines=0;fontStyle=1;align=center;resizeLast=1;" vertex="1" parent="IQqM77a2gq9a0r3q6opK-1">
          <mxGeometry x="50" y="60" width="180" height="160" as="geometry" />
        </mxCell>
        <mxCell id="IQqM77a2gq9a0r3q6opK-3" value="" style="shape=partialRectangle;collapsible=0;dropTarget=0;pointerEvents=0;fillColor=none;top=0;left=0;bottom=1;right=0;points=[[0,0.5],[1,0.5]];portConstraint=eastwest;" vertex="1" parent="IQqM77a2gq9a0r3q6opK-2">
          <mxGeometry y="30" width="180" height="30" as="geometry" />
        </mxCell>
        <mxCell id="IQqM77a2gq9a0r3q6opK-4" value="PK" style="shape=partialRectangle;connectable=0;fillColor=none;top=0;left=0;bottom=0;right=0;fontStyle=1;overflow=hidden;" vertex="1" parent="IQqM77a2gq9a0r3q6opK-3">
          <mxGeometry width="30" height="30" as="geometry" />
        </mxCell>
        <mxCell id="IQqM77a2gq9a0r3q6opK-5" value="SSN#" style="shape=partialRectangle;connectable=0;fillColor=none;top=0;left=0;bottom=0;right=0;align=left;spacingLeft=6;fontStyle=5;overflow=hidden;" vertex="1" parent="IQqM77a2gq9a0r3q6opK-3">
          <mxGeometry x="30" width="150" height="30" as="geometry" />
        </mxCell>
        <mxCell id="IQqM77a2gq9a0r3q6opK-6" value="" style="shape=partialRectangle;collapsible=0;dropTarget=0;pointerEvents=0;fillColor=none;top=0;left=0;bottom=0;right=0;points=[[0,0.5],[1,0.5]];portConstraint=eastwest;" vertex="1" parent="IQqM77a2gq9a0r3q6opK-2">
          <mxGeometry y="60" width="180" height="30" as="geometry" />
        </mxCell>
        <mxCell id="IQqM77a2gq9a0r3q6opK-7" value="" style="shape=partialRectangle;connectable=0;fillColor=none;top=0;left=0;bottom=0;right=0;editable=1;overflow=hidden;" vertex="1" parent="IQqM77a2gq9a0r3q6opK-6">
          <mxGeometry width="30" height="30" as="geometry" />
        </mxCell>
        <mxCell id="IQqM77a2gq9a0r3q6opK-8" value="Name" style="shape=partialRectangle;connectable=0;fillColor=none;top=0;left=0;bottom=0;right=0;align=left;spacingLeft=6;overflow=hidden;" vertex="1" parent="IQqM77a2gq9a0r3q6opK-6">
          <mxGeometry x="30" width="150" height="30" as="geometry" />
        </mxCell>
        <mxCell id="IQqM77a2gq9a0r3q6opK-9" value="" style="shape=partialRectangle;collapsible=0;dropTarget=0;pointerEvents=0;fillColor=none;top=0;left=0;bottom=0;right=0;points=[[0,0.5],[1,0.5]];portConstraint=eastwest;" vertex="1" parent="IQqM77a2gq9a0r3q6opK-2">
          <mxGeometry y="90" width="180" height="30" as="geometry" />
        </mxCell>
        <mxCell id="IQqM77a2gq9a0r3q6opK-10" value="" style="shape=partialRectangle;connectable=0;fillColor=none;top=0;left=0;bottom=0;right=0;editable=1;overflow=hidden;" vertex="1" parent="IQqM77a2gq9a0r3q6opK-9">
          <mxGeometry width="30" height="30" as="geometry" />
        </mxCell>
        <mxCell id="IQqM77a2gq9a0r3q6opK-11" value="Major" style="shape=partialRectangle;connectable=0;fillColor=none;top=0;left=0;bottom=0;right=0;align=left;spacingLeft=6;overflow=hidden;" vertex="1" parent="IQqM77a2gq9a0r3q6opK-9">
          <mxGeometry x="30" width="150" height="30" as="geometry" />
        </mxCell>
        <mxCell id="IQqM77a2gq9a0r3q6opK-12" value="" style="shape=partialRectangle;collapsible=0;dropTarget=0;pointerEvents=0;fillColor=none;top=0;left=0;bottom=0;right=0;points=[[0,0.5],[1,0.5]];portConstraint=eastwest;" vertex="1" parent="IQqM77a2gq9a0r3q6opK-2">
          <mxGeometry y="120" width="180" height="30" as="geometry" />
        </mxCell>
        <mxCell id="IQqM77a2gq9a0r3q6opK-13" value="" style="shape=partialRectangle;connectable=0;fillColor=none;top=0;left=0;bottom=0;right=0;editable=1;overflow=hidden;" vertex="1" parent="IQqM77a2gq9a0r3q6opK-12">
          <mxGeometry width="30" height="30" as="geometry" />
        </mxCell>
        <mxCell id="IQqM77a2gq9a0r3q6opK-14" value="Bdate" style="shape=partialRectangle;connectable=0;fillColor=none;top=0;left=0;bottom=0;right=0;align=left;spacingLeft=6;overflow=hidden;" vertex="1" parent="IQqM77a2gq9a0r3q6opK-12">
          <mxGeometry x="30" width="150" height="30" as="geometry" />
        </mxCell>
        <mxCell id="IQqM77a2gq9a0r3q6opK-15" value="COURSE" style="shape=table;startSize=40;container=1;collapsible=1;childLayout=tableLayout;fixedRows=1;rowLines=0;fontStyle=1;align=center;resizeLast=1;" vertex="1" parent="IQqM77a2gq9a0r3q6opK-1">
          <mxGeometry x="470" y="250" width="180" height="150" as="geometry" />
        </mxCell>
        <mxCell id="IQqM77a2gq9a0r3q6opK-16" value="" style="shape=partialRectangle;collapsible=0;dropTarget=0;pointerEvents=0;fillColor=none;top=0;left=0;bottom=1;right=0;points=[[0,0.5],[1,0.5]];portConstraint=eastwest;" vertex="1" parent="IQqM77a2gq9a0r3q6opK-15">
          <mxGeometry y="40" width="180" height="30" as="geometry" />
        </mxCell>
        <mxCell id="IQqM77a2gq9a0r3q6opK-17" value="PK" style="shape=partialRectangle;connectable=0;fillColor=none;top=0;left=0;bottom=0;right=0;fontStyle=1;overflow=hidden;" vertex="1" parent="IQqM77a2gq9a0r3q6opK-16">
          <mxGeometry width="30" height="30" as="geometry" />
        </mxCell>
        <mxCell id="IQqM77a2gq9a0r3q6opK-18" value="Course#" style="shape=partialRectangle;connectable=0;fillColor=none;top=0;left=0;bottom=0;right=0;align=left;spacingLeft=6;fontStyle=5;overflow=hidden;" vertex="1" parent="IQqM77a2gq9a0r3q6opK-16">
          <mxGeometry x="30" width="150" height="30" as="geometry" />
        </mxCell>
        <mxCell id="IQqM77a2gq9a0r3q6opK-19" value="" style="shape=partialRectangle;collapsible=0;dropTarget=0;pointerEvents=0;fillColor=none;top=0;left=0;bottom=0;right=0;points=[[0,0.5],[1,0.5]];portConstraint=eastwest;" vertex="1" parent="IQqM77a2gq9a0r3q6opK-15">
          <mxGeometry y="70" width="180" height="30" as="geometry" />
        </mxCell>
        <mxCell id="IQqM77a2gq9a0r3q6opK-20" value="" style="shape=partialRectangle;connectable=0;fillColor=none;top=0;left=0;bottom=0;right=0;editable=1;overflow=hidden;" vertex="1" parent="IQqM77a2gq9a0r3q6opK-19">
          <mxGeometry width="30" height="30" as="geometry" />
        </mxCell>
        <mxCell id="IQqM77a2gq9a0r3q6opK-21" value="Cname" style="shape=partialRectangle;connectable=0;fillColor=none;top=0;left=0;bottom=0;right=0;align=left;spacingLeft=6;overflow=hidden;" vertex="1" parent="IQqM77a2gq9a0r3q6opK-19">
          <mxGeometry x="30" width="150" height="30" as="geometry" />
        </mxCell>
        <mxCell id="IQqM77a2gq9a0r3q6opK-22" value="" style="shape=partialRectangle;collapsible=0;dropTarget=0;pointerEvents=0;fillColor=none;top=0;left=0;bottom=0;right=0;points=[[0,0.5],[1,0.5]];portConstraint=eastwest;" vertex="1" parent="IQqM77a2gq9a0r3q6opK-15">
          <mxGeometry y="100" width="180" height="30" as="geometry" />
        </mxCell>
        <mxCell id="IQqM77a2gq9a0r3q6opK-23" value="" style="shape=partialRectangle;connectable=0;fillColor=none;top=0;left=0;bottom=0;right=0;editable=1;overflow=hidden;" vertex="1" parent="IQqM77a2gq9a0r3q6opK-22">
          <mxGeometry width="30" height="30" as="geometry" />
        </mxCell>
        <mxCell id="IQqM77a2gq9a0r3q6opK-24" value="Dept" style="shape=partialRectangle;connectable=0;fillColor=none;top=0;left=0;bottom=0;right=0;align=left;spacingLeft=6;overflow=hidden;" vertex="1" parent="IQqM77a2gq9a0r3q6opK-22">
          <mxGeometry x="30" width="150" height="30" as="geometry" />
        </mxCell>
        <mxCell id="IQqM77a2gq9a0r3q6opK-25" value="" style="shape=partialRectangle;collapsible=0;dropTarget=0;pointerEvents=0;fillColor=none;top=0;left=0;bottom=0;right=0;points=[[0,0.5],[1,0.5]];portConstraint=eastwest;" vertex="1" parent="IQqM77a2gq9a0r3q6opK-15">
          <mxGeometry y="130" width="180" height="20" as="geometry" />
        </mxCell>
        <mxCell id="IQqM77a2gq9a0r3q6opK-26" value="" style="shape=partialRectangle;connectable=0;fillColor=none;top=0;left=0;bottom=0;right=0;editable=1;overflow=hidden;" vertex="1" parent="IQqM77a2gq9a0r3q6opK-25">
          <mxGeometry width="30" height="20" as="geometry" />
        </mxCell>
        <mxCell id="IQqM77a2gq9a0r3q6opK-27" value="" style="shape=partialRectangle;connectable=0;fillColor=none;top=0;left=0;bottom=0;right=0;align=left;spacingLeft=6;overflow=hidden;" vertex="1" parent="IQqM77a2gq9a0r3q6opK-25">
          <mxGeometry x="30" width="150" height="20" as="geometry" />
        </mxCell>
        <mxCell id="IQqM77a2gq9a0r3q6opK-62" value="ENROLL" style="shape=table;startSize=30;container=1;collapsible=1;childLayout=tableLayout;fixedRows=1;rowLines=0;fontStyle=1;align=center;resizeLast=1;" vertex="1" parent="IQqM77a2gq9a0r3q6opK-1">
          <mxGeometry x="470" y="60" width="180" height="160" as="geometry" />
        </mxCell>
        <mxCell id="IQqM77a2gq9a0r3q6opK-63" value="" style="shape=partialRectangle;collapsible=0;dropTarget=0;pointerEvents=0;fillColor=none;top=0;left=0;bottom=0;right=0;points=[[0,0.5],[1,0.5]];portConstraint=eastwest;" vertex="1" parent="IQqM77a2gq9a0r3q6opK-62">
          <mxGeometry y="30" width="180" height="30" as="geometry" />
        </mxCell>
        <mxCell id="IQqM77a2gq9a0r3q6opK-64" value="PK,FK1" style="shape=partialRectangle;connectable=0;fillColor=none;top=0;left=0;bottom=0;right=0;fontStyle=1;overflow=hidden;" vertex="1" parent="IQqM77a2gq9a0r3q6opK-63">
          <mxGeometry width="60" height="30" as="geometry" />
        </mxCell>
        <mxCell id="IQqM77a2gq9a0r3q6opK-65" value="SSN#" style="shape=partialRectangle;connectable=0;fillColor=none;top=0;left=0;bottom=0;right=0;align=left;spacingLeft=6;fontStyle=5;overflow=hidden;" vertex="1" parent="IQqM77a2gq9a0r3q6opK-63">
          <mxGeometry x="60" width="120" height="30" as="geometry" />
        </mxCell>
        <mxCell id="IQqM77a2gq9a0r3q6opK-66" value="" style="shape=partialRectangle;collapsible=0;dropTarget=0;pointerEvents=0;fillColor=none;top=0;left=0;bottom=1;right=0;points=[[0,0.5],[1,0.5]];portConstraint=eastwest;" vertex="1" parent="IQqM77a2gq9a0r3q6opK-62">
          <mxGeometry y="60" width="180" height="30" as="geometry" />
        </mxCell>
        <mxCell id="IQqM77a2gq9a0r3q6opK-67" value="PK,FK2" style="shape=partialRectangle;connectable=0;fillColor=none;top=0;left=0;bottom=0;right=0;fontStyle=1;overflow=hidden;" vertex="1" parent="IQqM77a2gq9a0r3q6opK-66">
          <mxGeometry width="60" height="30" as="geometry" />
        </mxCell>
        <mxCell id="IQqM77a2gq9a0r3q6opK-68" value="Course#" style="shape=partialRectangle;connectable=0;fillColor=none;top=0;left=0;bottom=0;right=0;align=left;spacingLeft=6;fontStyle=5;overflow=hidden;" vertex="1" parent="IQqM77a2gq9a0r3q6opK-66">
          <mxGeometry x="60" width="120" height="30" as="geometry" />
        </mxCell>
        <mxCell id="IQqM77a2gq9a0r3q6opK-69" value="" style="shape=partialRectangle;collapsible=0;dropTarget=0;pointerEvents=0;fillColor=none;top=0;left=0;bottom=0;right=0;points=[[0,0.5],[1,0.5]];portConstraint=eastwest;" vertex="1" parent="IQqM77a2gq9a0r3q6opK-62">
          <mxGeometry y="90" width="180" height="30" as="geometry" />
        </mxCell>
        <mxCell id="IQqM77a2gq9a0r3q6opK-70" value="" style="shape=partialRectangle;connectable=0;fillColor=none;top=0;left=0;bottom=0;right=0;editable=1;overflow=hidden;" vertex="1" parent="IQqM77a2gq9a0r3q6opK-69">
          <mxGeometry width="60" height="30" as="geometry" />
        </mxCell>
        <mxCell id="IQqM77a2gq9a0r3q6opK-71" value="Grade" style="shape=partialRectangle;connectable=0;fillColor=none;top=0;left=0;bottom=0;right=0;align=left;spacingLeft=6;overflow=hidden;" vertex="1" parent="IQqM77a2gq9a0r3q6opK-69">
          <mxGeometry x="60" width="120" height="30" as="geometry" />
        </mxCell>
        <mxCell id="IQqM77a2gq9a0r3q6opK-72" value="" style="shape=partialRectangle;collapsible=0;dropTarget=0;pointerEvents=0;fillColor=none;top=0;left=0;bottom=0;right=0;points=[[0,0.5],[1,0.5]];portConstraint=eastwest;" vertex="1" parent="IQqM77a2gq9a0r3q6opK-62">
          <mxGeometry y="120" width="180" height="30" as="geometry" />
        </mxCell>
        <mxCell id="IQqM77a2gq9a0r3q6opK-73" value="" style="shape=partialRectangle;connectable=0;fillColor=none;top=0;left=0;bottom=0;right=0;editable=1;overflow=hidden;" vertex="1" parent="IQqM77a2gq9a0r3q6opK-72">
          <mxGeometry width="60" height="30" as="geometry" />
        </mxCell>
        <mxCell id="IQqM77a2gq9a0r3q6opK-74" value="Quater" style="shape=partialRectangle;connectable=0;fillColor=none;top=0;left=0;bottom=0;right=0;align=left;spacingLeft=6;overflow=hidden;" vertex="1" parent="IQqM77a2gq9a0r3q6opK-72">
          <mxGeometry x="60" width="120" height="30" as="geometry" />
        </mxCell>
        <mxCell id="IQqM77a2gq9a0r3q6opK-75" value="" style="edgeStyle=entityRelationEdgeStyle;fontSize=12;html=1;endArrow=ERzeroToMany;startArrow=ERmandOne;" edge="1" parent="IQqM77a2gq9a0r3q6opK-1" source="IQqM77a2gq9a0r3q6opK-3" target="IQqM77a2gq9a0r3q6opK-63">
          <mxGeometry width="100" height="100" relative="1" as="geometry">
            <mxPoint x="200" y="260" as="sourcePoint" />
            <mxPoint x="260" y="150" as="targetPoint" />
          </mxGeometry>
        </mxCell>
        <mxCell id="IQqM77a2gq9a0r3q6opK-77" value="" style="edgeStyle=entityRelationEdgeStyle;fontSize=12;html=1;endArrow=ERmandOne;startArrow=ERmandOne;" edge="1" parent="IQqM77a2gq9a0r3q6opK-1" source="IQqM77a2gq9a0r3q6opK-16" target="IQqM77a2gq9a0r3q6opK-66">
          <mxGeometry width="100" height="100" relative="1" as="geometry">
            <mxPoint x="260" y="350" as="sourcePoint" />
            <mxPoint x="360" y="250" as="targetPoint" />
          </mxGeometry>
        </mxCell>
        <mxCell id="IQqM77a2gq9a0r3q6opK-78" value="BOOL_ADOTION" style="shape=table;startSize=30;container=1;collapsible=1;childLayout=tableLayout;fixedRows=1;rowLines=0;fontStyle=1;align=center;resizeLast=1;" vertex="1" parent="IQqM77a2gq9a0r3q6opK-1">
          <mxGeometry x="54" y="260" width="180" height="140" as="geometry" />
        </mxCell>
        <mxCell id="IQqM77a2gq9a0r3q6opK-79" value="" style="shape=partialRectangle;collapsible=0;dropTarget=0;pointerEvents=0;fillColor=none;top=0;left=0;bottom=0;right=0;points=[[0,0.5],[1,0.5]];portConstraint=eastwest;" vertex="1" parent="IQqM77a2gq9a0r3q6opK-78">
          <mxGeometry y="30" width="180" height="30" as="geometry" />
        </mxCell>
        <mxCell id="IQqM77a2gq9a0r3q6opK-80" value="PK,FK1" style="shape=partialRectangle;connectable=0;fillColor=none;top=0;left=0;bottom=0;right=0;fontStyle=1;overflow=hidden;" vertex="1" parent="IQqM77a2gq9a0r3q6opK-79">
          <mxGeometry width="60" height="30" as="geometry" />
        </mxCell>
        <mxCell id="IQqM77a2gq9a0r3q6opK-81" value="Course#" style="shape=partialRectangle;connectable=0;fillColor=none;top=0;left=0;bottom=0;right=0;align=left;spacingLeft=6;fontStyle=5;overflow=hidden;" vertex="1" parent="IQqM77a2gq9a0r3q6opK-79">
          <mxGeometry x="60" width="120" height="30" as="geometry" />
        </mxCell>
        <mxCell id="IQqM77a2gq9a0r3q6opK-82" value="" style="shape=partialRectangle;collapsible=0;dropTarget=0;pointerEvents=0;fillColor=none;top=0;left=0;bottom=1;right=0;points=[[0,0.5],[1,0.5]];portConstraint=eastwest;" vertex="1" parent="IQqM77a2gq9a0r3q6opK-78">
          <mxGeometry y="60" width="180" height="30" as="geometry" />
        </mxCell>
        <mxCell id="IQqM77a2gq9a0r3q6opK-83" value="PK,FK2" style="shape=partialRectangle;connectable=0;fillColor=none;top=0;left=0;bottom=0;right=0;fontStyle=1;overflow=hidden;" vertex="1" parent="IQqM77a2gq9a0r3q6opK-82">
          <mxGeometry width="60" height="30" as="geometry" />
        </mxCell>
        <mxCell id="IQqM77a2gq9a0r3q6opK-84" value="Book_ISBN#" style="shape=partialRectangle;connectable=0;fillColor=none;top=0;left=0;bottom=0;right=0;align=left;spacingLeft=6;fontStyle=5;overflow=hidden;" vertex="1" parent="IQqM77a2gq9a0r3q6opK-82">
          <mxGeometry x="60" width="120" height="30" as="geometry" />
        </mxCell>
        <mxCell id="IQqM77a2gq9a0r3q6opK-85" value="" style="shape=partialRectangle;collapsible=0;dropTarget=0;pointerEvents=0;fillColor=none;top=0;left=0;bottom=0;right=0;points=[[0,0.5],[1,0.5]];portConstraint=eastwest;" vertex="1" parent="IQqM77a2gq9a0r3q6opK-78">
          <mxGeometry y="90" width="180" height="30" as="geometry" />
        </mxCell>
        <mxCell id="IQqM77a2gq9a0r3q6opK-86" value="" style="shape=partialRectangle;connectable=0;fillColor=none;top=0;left=0;bottom=0;right=0;editable=1;overflow=hidden;" vertex="1" parent="IQqM77a2gq9a0r3q6opK-85">
          <mxGeometry width="60" height="30" as="geometry" />
        </mxCell>
        <mxCell id="IQqM77a2gq9a0r3q6opK-87" value="Quarter" style="shape=partialRectangle;connectable=0;fillColor=none;top=0;left=0;bottom=0;right=0;align=left;spacingLeft=6;overflow=hidden;" vertex="1" parent="IQqM77a2gq9a0r3q6opK-85">
          <mxGeometry x="60" width="120" height="30" as="geometry" />
        </mxCell>
        <mxCell id="IQqM77a2gq9a0r3q6opK-88" value="" style="shape=partialRectangle;collapsible=0;dropTarget=0;pointerEvents=0;fillColor=none;top=0;left=0;bottom=0;right=0;points=[[0,0.5],[1,0.5]];portConstraint=eastwest;" vertex="1" parent="IQqM77a2gq9a0r3q6opK-78">
          <mxGeometry y="120" width="180" height="20" as="geometry" />
        </mxCell>
        <mxCell id="IQqM77a2gq9a0r3q6opK-89" value="" style="shape=partialRectangle;connectable=0;fillColor=none;top=0;left=0;bottom=0;right=0;editable=1;overflow=hidden;" vertex="1" parent="IQqM77a2gq9a0r3q6opK-88">
          <mxGeometry width="60" height="20" as="geometry" />
        </mxCell>
        <mxCell id="IQqM77a2gq9a0r3q6opK-90" value="" style="shape=partialRectangle;connectable=0;fillColor=none;top=0;left=0;bottom=0;right=0;align=left;spacingLeft=6;overflow=hidden;" vertex="1" parent="IQqM77a2gq9a0r3q6opK-88">
          <mxGeometry x="60" width="120" height="20" as="geometry" />
        </mxCell>
        <mxCell id="IQqM77a2gq9a0r3q6opK-91" value="" style="edgeStyle=entityRelationEdgeStyle;fontSize=12;html=1;endArrow=ERmany;" edge="1" parent="IQqM77a2gq9a0r3q6opK-1" source="IQqM77a2gq9a0r3q6opK-16" target="IQqM77a2gq9a0r3q6opK-79">
          <mxGeometry width="100" height="100" relative="1" as="geometry">
            <mxPoint x="150" y="310" as="sourcePoint" />
            <mxPoint x="250" y="210" as="targetPoint" />
          </mxGeometry>
        </mxCell>
        <mxCell id="IQqM77a2gq9a0r3q6opK-92" value="BOOK" style="shape=table;startSize=30;container=1;collapsible=1;childLayout=tableLayout;fixedRows=1;rowLines=0;fontStyle=1;align=center;resizeLast=1;" vertex="1" parent="IQqM77a2gq9a0r3q6opK-1">
          <mxGeometry x="54" y="425" width="180" height="160" as="geometry" />
        </mxCell>
        <mxCell id="IQqM77a2gq9a0r3q6opK-93" value="" style="shape=partialRectangle;collapsible=0;dropTarget=0;pointerEvents=0;fillColor=none;top=0;left=0;bottom=1;right=0;points=[[0,0.5],[1,0.5]];portConstraint=eastwest;" vertex="1" parent="IQqM77a2gq9a0r3q6opK-92">
          <mxGeometry y="30" width="180" height="30" as="geometry" />
        </mxCell>
        <mxCell id="IQqM77a2gq9a0r3q6opK-94" value="PK" style="shape=partialRectangle;connectable=0;fillColor=none;top=0;left=0;bottom=0;right=0;fontStyle=1;overflow=hidden;" vertex="1" parent="IQqM77a2gq9a0r3q6opK-93">
          <mxGeometry width="30" height="30" as="geometry" />
        </mxCell>
        <mxCell id="IQqM77a2gq9a0r3q6opK-95" value="Book_ISBN#" style="shape=partialRectangle;connectable=0;fillColor=none;top=0;left=0;bottom=0;right=0;align=left;spacingLeft=6;fontStyle=5;overflow=hidden;" vertex="1" parent="IQqM77a2gq9a0r3q6opK-93">
          <mxGeometry x="30" width="150" height="30" as="geometry" />
        </mxCell>
        <mxCell id="IQqM77a2gq9a0r3q6opK-96" value="" style="shape=partialRectangle;collapsible=0;dropTarget=0;pointerEvents=0;fillColor=none;top=0;left=0;bottom=0;right=0;points=[[0,0.5],[1,0.5]];portConstraint=eastwest;" vertex="1" parent="IQqM77a2gq9a0r3q6opK-92">
          <mxGeometry y="60" width="180" height="30" as="geometry" />
        </mxCell>
        <mxCell id="IQqM77a2gq9a0r3q6opK-97" value="" style="shape=partialRectangle;connectable=0;fillColor=none;top=0;left=0;bottom=0;right=0;editable=1;overflow=hidden;" vertex="1" parent="IQqM77a2gq9a0r3q6opK-96">
          <mxGeometry width="30" height="30" as="geometry" />
        </mxCell>
        <mxCell id="IQqM77a2gq9a0r3q6opK-98" value="BookTitle" style="shape=partialRectangle;connectable=0;fillColor=none;top=0;left=0;bottom=0;right=0;align=left;spacingLeft=6;overflow=hidden;" vertex="1" parent="IQqM77a2gq9a0r3q6opK-96">
          <mxGeometry x="30" width="150" height="30" as="geometry" />
        </mxCell>
        <mxCell id="IQqM77a2gq9a0r3q6opK-99" value="" style="shape=partialRectangle;collapsible=0;dropTarget=0;pointerEvents=0;fillColor=none;top=0;left=0;bottom=0;right=0;points=[[0,0.5],[1,0.5]];portConstraint=eastwest;" vertex="1" parent="IQqM77a2gq9a0r3q6opK-92">
          <mxGeometry y="90" width="180" height="30" as="geometry" />
        </mxCell>
        <mxCell id="IQqM77a2gq9a0r3q6opK-100" value="" style="shape=partialRectangle;connectable=0;fillColor=none;top=0;left=0;bottom=0;right=0;editable=1;overflow=hidden;" vertex="1" parent="IQqM77a2gq9a0r3q6opK-99">
          <mxGeometry width="30" height="30" as="geometry" />
        </mxCell>
        <mxCell id="IQqM77a2gq9a0r3q6opK-101" value="Publisher" style="shape=partialRectangle;connectable=0;fillColor=none;top=0;left=0;bottom=0;right=0;align=left;spacingLeft=6;overflow=hidden;" vertex="1" parent="IQqM77a2gq9a0r3q6opK-99">
          <mxGeometry x="30" width="150" height="30" as="geometry" />
        </mxCell>
        <mxCell id="IQqM77a2gq9a0r3q6opK-102" value="" style="shape=partialRectangle;collapsible=0;dropTarget=0;pointerEvents=0;fillColor=none;top=0;left=0;bottom=0;right=0;points=[[0,0.5],[1,0.5]];portConstraint=eastwest;" vertex="1" parent="IQqM77a2gq9a0r3q6opK-92">
          <mxGeometry y="120" width="180" height="30" as="geometry" />
        </mxCell>
        <mxCell id="IQqM77a2gq9a0r3q6opK-103" value="" style="shape=partialRectangle;connectable=0;fillColor=none;top=0;left=0;bottom=0;right=0;editable=1;overflow=hidden;" vertex="1" parent="IQqM77a2gq9a0r3q6opK-102">
          <mxGeometry width="30" height="30" as="geometry" />
        </mxCell>
        <mxCell id="IQqM77a2gq9a0r3q6opK-104" value="Author" style="shape=partialRectangle;connectable=0;fillColor=none;top=0;left=0;bottom=0;right=0;align=left;spacingLeft=6;overflow=hidden;" vertex="1" parent="IQqM77a2gq9a0r3q6opK-102">
          <mxGeometry x="30" width="150" height="30" as="geometry" />
        </mxCell>
        <mxCell id="IQqM77a2gq9a0r3q6opK-106" value="" style="edgeStyle=entityRelationEdgeStyle;fontSize=12;html=1;endArrow=ERmandOne;startArrow=ERmandOne;" edge="1" parent="IQqM77a2gq9a0r3q6opK-1" source="IQqM77a2gq9a0r3q6opK-82" target="IQqM77a2gq9a0r3q6opK-93">
          <mxGeometry width="100" height="100" relative="1" as="geometry">
            <mxPoint x="134" y="600" as="sourcePoint" />
            <mxPoint x="234" y="500" as="targetPoint" />
          </mxGeometry>
        </mxCell>
      </root>
    </mxGraphModel>
  </diagram>
</mxfile>
